<svg id="check" xmlns="http://www.w3.org/2000/svg" width="18" height="18" viewBox="0 0 18 18">
  <path id="Path_316" data-name="Path 316" d="M0,0H18V18H0Z" fill="none"/>
  <path id="Path_317" data-name="Path 317" d="M9.38,20.535a6.707,6.707,0,0,1-1.86-.727" transform="translate(-1.88 -4.952)" fill="none" stroke="#fff" stroke-linecap="round" stroke-linejoin="round" stroke-width="1.5"/>
  <path id="Path_318" data-name="Path 318" d="M14,3.223a6.752,6.752,0,0,1,0,13.166" transform="translate(-3.5 -0.806)" fill="none" stroke="#fff" stroke-linecap="round" stroke-linejoin="round" stroke-width="1.5"/>
  <path id="Path_319" data-name="Path 319" d="M4.272,16.445a6.721,6.721,0,0,1-.92-1.944" transform="translate(-0.838 -3.625)" fill="none" stroke="#fff" stroke-linecap="round" stroke-linejoin="round" stroke-width="1.5"/>
  <path id="Path_320" data-name="Path 320" d="M3.124,9.755A6.732,6.732,0,0,1,3.8,7.749l.127-.229" transform="translate(-0.781 -1.88)" fill="none" stroke="#fff" stroke-linecap="round" stroke-linejoin="round" stroke-width="1.5"/>
  <path id="Path_321" data-name="Path 321" d="M6.907,4.24a6.716,6.716,0,0,1,2.32-1.017" transform="translate(-1.727 -0.806)" fill="none" stroke="#fff" stroke-linecap="round" stroke-linejoin="round" stroke-width="1.5"/>
  <path id="Path_322" data-name="Path 322" d="M9,11.5,10.5,13l3-3" transform="translate(-2.25 -2.5)" fill="none" stroke="#fff" stroke-linecap="round" stroke-linejoin="round" stroke-width="1.5"/>
</svg>
