<svg id="copy" xmlns="http://www.w3.org/2000/svg" width="18" height="18" viewBox="0 0 18 18">
  <path id="Path_328" data-name="Path 328" d="M0,0H18V18H0Z" fill="none"/>
  <path id="Path_329" data-name="Path 329" d="M8,8,8,9.5A1.5,1.5,0,0,1,9.5,8h6A1.5,1.5,0,0,1,17,9.5v6A1.5,1.5,0,0,1,15.5,17h-6A1.5,1.5,0,0,1,8,15.5Z" transform="translate(-2 -2)" fill="none" stroke="#091f3d" stroke-linecap="round" stroke-linejoin="round" stroke-width="1.5"/>
  <path id="Path_330" data-name="Path 330" d="M13,7V5.5A1.5,1.5,0,0,0,11.5,4h-6A1.5,1.5,0,0,0,4,5.5v6A1.5,1.5,0,0,0,5.5,13H7" transform="translate(-1 -1)" fill="none" stroke="#091f3d" stroke-linecap="round" stroke-linejoin="round" stroke-width="1.5"/>
</svg>
