<svg xmlns="http://www.w3.org/2000/svg" width="105" height="30" viewBox="0 0 105 30">
  <g id="logo" style="mix-blend-mode: normal;isolation: isolate">
    <path id="Path_37" data-name="Path 37" d="M.069,60.671l2.19-2.7a5.85,5.85,0,0,0,4.047,1.663,5.955,5.955,0,0,0,2.467-.443q.969-.444.97-1.22,0-1.317-2.148-1.317a15.915,15.915,0,0,0-1.732.139,15.881,15.881,0,0,1-1.732.139q-3.576,0-3.576-2.564a2.229,2.229,0,0,1,.6-1.442,3.663,3.663,0,0,1,1.386-1.04A5.258,5.258,0,0,1,0,47.213,5.058,5.058,0,0,1,1.746,43.27a6.218,6.218,0,0,1,4.3-1.559,6.792,6.792,0,0,1,3.34.748l1.358-1.58,2.4,2.176L11.49,44.261a6.026,6.026,0,0,1-.686,7.131,5.34,5.34,0,0,1-3.9,1.518,9.41,9.41,0,0,1-1-.069l-.568-.083a3.785,3.785,0,0,0-.741.3q-.644.3-.644.617,0,.554.956.554a8.29,8.29,0,0,0,1.442-.208A8.813,8.813,0,0,1,8.08,53.81q5.059,0,5.059,4.061A3.978,3.978,0,0,1,11.116,61.4a8.929,8.929,0,0,1-4.879,1.282,10.224,10.224,0,0,1-6.168-2.01M3.534,47.227a3.013,3.013,0,0,0,.727,2.114,2.525,2.525,0,0,0,1.961.8,2.363,2.363,0,0,0,1.9-.776,3.173,3.173,0,0,0,.665-2.134,2.7,2.7,0,0,0-.714-1.9,2.4,2.4,0,0,0-1.85-.776,2.565,2.565,0,0,0-2.689,2.675" transform="translate(0 -32.681)" fill="#4bb29e"/>
    <path id="Path_38" data-name="Path 38" d="M85.476,48.558a3.636,3.636,0,0,0-2.037-.61A2.765,2.765,0,0,0,81.3,49.043a3.978,3.978,0,0,0-.936,2.675v8.454H76.9V45.328h3.465v1.358a4.923,4.923,0,0,1,3.867-1.636,5.538,5.538,0,0,1,2.717.541Z" transform="translate(-61.1 -35.908)" fill="#4bb29e"/>
    <path id="Path_39" data-name="Path 39" d="M142.286,53.811h-10.6a3.764,3.764,0,0,0,1.22,2.758,4.42,4.42,0,0,0,3.021.984,4.882,4.882,0,0,0,3.6-1.234l1.345,2.647a8.536,8.536,0,0,1-5.461,1.483,7.228,7.228,0,0,1-5.371-1.989,7.533,7.533,0,0,1-1.975-5.551,7.7,7.7,0,0,1,2.169-5.683,7.607,7.607,0,0,1,10.388-.249,6.6,6.6,0,0,1,1.954,4.906,9.68,9.68,0,0,1-.291,1.927M131.808,51.2h7.29a3.256,3.256,0,0,0-3.6-3.257q-2.966,0-3.687,3.257" transform="translate(-101.761 -35.911)" fill="#4bb29e"/>
    <path id="Path_40" data-name="Path 40" d="M223.49,53.811h-10.6a3.764,3.764,0,0,0,1.22,2.758,4.42,4.42,0,0,0,3.021.984,4.882,4.882,0,0,0,3.6-1.234l1.345,2.647a8.536,8.536,0,0,1-5.461,1.483,7.228,7.228,0,0,1-5.371-1.989,7.532,7.532,0,0,1-1.975-5.551,7.7,7.7,0,0,1,2.169-5.683,7.607,7.607,0,0,1,10.388-.249,6.6,6.6,0,0,1,1.954,4.906,9.682,9.682,0,0,1-.291,1.927M213.012,51.2h7.29a3.257,3.257,0,0,0-3.6-3.257q-2.966,0-3.686,3.257" transform="translate(-166.286 -35.911)" fill="#4bb29e"/>
    <path id="Path_41" data-name="Path 41" d="M300.733,60.172V51.593A4.3,4.3,0,0,0,300,48.821a2.929,2.929,0,0,0-2.377-.873,3.681,3.681,0,0,0-1.628.43,3.753,3.753,0,0,0-1.352,1.067V60.172h-3.465V45.328h2.495l.638,1.386a5.17,5.17,0,0,1,4.172-1.663,5.536,5.536,0,0,1,4.179,1.587,6.114,6.114,0,0,1,1.532,4.428v9.106Z" transform="translate(-231.372 -35.908)" fill="#4bb29e"/>
    <path id="Path_42" data-name="Path 42" d="M369.766,61.241v-12h-1.9V46.4h5.405V61.241Z" transform="translate(-292.289 -36.978)" fill="#091f3c"/>
    <path id="Path_43" data-name="Path 43" d="M417.106,20.029a6.1,6.1,0,0,0-1.746-.374,2.08,2.08,0,0,0-1.67.845A3.193,3.193,0,0,0,413,22.579q0,.18.014.36h3.077v2.855h-3.022V37.784h-3.465V25.795h-2.162V22.939h2.176a6.786,6.786,0,0,1,1.615-4.407,4.982,4.982,0,0,1,3.888-1.677,10.644,10.644,0,0,1,3.007.54Z" transform="translate(-323.776 -13.383)" fill="#091f3c"/>
    <path id="Path_44" data-name="Path 44" d="M460.46,59.216l1.233-2.758a5.488,5.488,0,0,0,3.507,1.234q2.023,0,2.023-1.442a1.769,1.769,0,0,0-.61-1.386,9.333,9.333,0,0,0-2.37-1.275q-3.839-1.594-3.839-4.463a3.5,3.5,0,0,1,1.469-3,6.2,6.2,0,0,1,3.756-1.074,9.443,9.443,0,0,1,4.352,1.039l-1,2.689a4.718,4.718,0,0,0-3.16-.97q-1.816,0-1.816,1.441a1.3,1.3,0,0,0,.6,1.026,12.317,12.317,0,0,0,2.55,1.227,6.539,6.539,0,0,1,2.813,1.864,4.158,4.158,0,0,1,.859,2.647,3.885,3.885,0,0,1-1.531,3.25,6.641,6.641,0,0,1-4.165,1.185,9.4,9.4,0,0,1-2.377-.242,11.648,11.648,0,0,1-2.294-.991" transform="translate(-365.827 -35.911)" fill="#091f3c"/>
    <path id="Path_45" data-name="Path 45" d="M323.343,3.488h0A3.5,3.5,0,0,1,326.831,0h7.6a3.488,3.488,0,1,1,0,6.976h-7.6a3.5,3.5,0,0,1-3.488-3.488" transform="translate(-256.929)" fill="#4bb29e"/>
    <path id="Path_46" data-name="Path 46" d="M371.78,9.392a1.957,1.957,0,1,1-1.957-1.957,1.957,1.957,0,0,1,1.957,1.957" transform="translate(-292.286 -5.904)" fill="#091f3c"/>
  </g>
</svg>
