<svg xmlns="http://www.w3.org/2000/svg" width="116.118" height="24" viewBox="0 0 116.118 24">
  <g id="g4g" transform="translate(-41.1 -517.966)">
    <g id="Group_7451" data-name="Group 7451" transform="translate(41.1 517.966)">
      <path id="Path_50519" data-name="Path 50519" d="M328.533,539.753l2.411-2.975a6.441,6.441,0,0,0,4.455,1.831,6.552,6.552,0,0,0,2.716-.488q1.068-.488,1.068-1.343,0-1.45-2.365-1.449a17.511,17.511,0,0,0-1.907.153,17.462,17.462,0,0,1-1.907.153q-3.936,0-3.936-2.823a2.453,2.453,0,0,1,.656-1.587,4.025,4.025,0,0,1,1.526-1.144,5.788,5.788,0,0,1-2.792-5.142,5.568,5.568,0,0,1,1.922-4.341,6.844,6.844,0,0,1,4.73-1.716,7.476,7.476,0,0,1,3.677.824l1.5-1.739,2.64,2.4-1.816,1.327a6.635,6.635,0,0,1-.755,7.85,5.879,5.879,0,0,1-4.3,1.671,10.415,10.415,0,0,1-1.1-.076l-.626-.092a4.139,4.139,0,0,0-.816.328q-.709.328-.709.679,0,.61,1.053.61a9.128,9.128,0,0,0,1.587-.229,9.707,9.707,0,0,1,1.907-.229q5.569,0,5.569,4.47a4.379,4.379,0,0,1-2.227,3.883,9.829,9.829,0,0,1-5.371,1.411A11.254,11.254,0,0,1,328.533,539.753Zm3.814-14.8a3.317,3.317,0,0,0,.8,2.327,2.782,2.782,0,0,0,2.159.877,2.6,2.6,0,0,0,2.09-.855,3.494,3.494,0,0,0,.732-2.35,2.975,2.975,0,0,0-.786-2.09,2.641,2.641,0,0,0-2.037-.854,2.824,2.824,0,0,0-2.96,2.945Z" transform="translate(-291.752 -517.966)" fill="#091f3d"/>
      <path id="Path_50520" data-name="Path 50520" d="M41.076,539.753l2.411-2.975a6.44,6.44,0,0,0,4.455,1.831,6.553,6.553,0,0,0,2.716-.488q1.068-.488,1.068-1.343,0-1.45-2.365-1.45a17.447,17.447,0,0,0-1.907.153,17.465,17.465,0,0,1-1.907.153q-3.936,0-3.936-2.823a2.454,2.454,0,0,1,.656-1.587,4.025,4.025,0,0,1,1.526-1.144A5.789,5.789,0,0,1,41,524.938a5.568,5.568,0,0,1,1.922-4.341,6.843,6.843,0,0,1,4.73-1.716,7.477,7.477,0,0,1,3.677.824l1.5-1.739,2.639,2.4-1.816,1.327a6.634,6.634,0,0,1-.755,7.85,5.879,5.879,0,0,1-4.295,1.671,10.415,10.415,0,0,1-1.1-.076l-.626-.092a4.137,4.137,0,0,0-.816.328q-.709.328-.709.679,0,.61,1.053.61a9.131,9.131,0,0,0,1.587-.229A9.7,9.7,0,0,1,49.9,532.2q5.569,0,5.569,4.47a4.379,4.379,0,0,1-2.228,3.883,9.829,9.829,0,0,1-5.371,1.411A11.254,11.254,0,0,1,41.076,539.753Zm3.814-14.8a3.317,3.317,0,0,0,.8,2.327,2.781,2.781,0,0,0,2.159.877,2.6,2.6,0,0,0,2.09-.855,3.5,3.5,0,0,0,.732-2.35,2.975,2.975,0,0,0-.786-2.09,2.64,2.64,0,0,0-2.037-.854,2.824,2.824,0,0,0-2.96,2.945Z" transform="translate(-41 -517.966)" fill="#091f3d"/>
      <path id="Path_50521" data-name="Path 50521" d="M474.253,529.231a4,4,0,0,0-2.243-.671,3.043,3.043,0,0,0-2.357,1.205,4.378,4.378,0,0,0-1.03,2.945v9.307h-3.814v-16.34h3.814v1.495a5.42,5.42,0,0,1,4.257-1.8,6.1,6.1,0,0,1,2.99.595Z" transform="translate(-410.688 -524.425)" fill="#091f3d"/>
      <path id="Path_50522" data-name="Path 50522" d="M567.532,535.014H555.86a4.141,4.141,0,0,0,1.343,3.036,4.87,4.87,0,0,0,3.326,1.083,5.376,5.376,0,0,0,3.967-1.358l1.48,2.914q-2.014,1.633-6.011,1.633a7.957,7.957,0,0,1-5.912-2.189,8.3,8.3,0,0,1-2.174-6.111,8.475,8.475,0,0,1,2.388-6.255,8.374,8.374,0,0,1,11.436-.275,7.26,7.26,0,0,1,2.151,5.4A10.689,10.689,0,0,1,567.532,535.014ZM556,532.145h8.025a3.585,3.585,0,0,0-3.967-3.585q-3.265,0-4.058,3.585Z" transform="translate(-486.635 -524.425)" fill="#091f3d"/>
      <path id="Path_50523" data-name="Path 50523" d="M708.122,535.014H696.45a4.142,4.142,0,0,0,1.343,3.036,4.87,4.87,0,0,0,3.326,1.083,5.376,5.376,0,0,0,3.967-1.358l1.48,2.914q-2.014,1.633-6.011,1.633a7.957,7.957,0,0,1-5.912-2.189,8.3,8.3,0,0,1-2.174-6.111,8.476,8.476,0,0,1,2.388-6.255,8.374,8.374,0,0,1,11.436-.275,7.261,7.261,0,0,1,2.151,5.4A10.681,10.681,0,0,1,708.122,535.014Zm-11.535-2.868h8.025a3.584,3.584,0,0,0-3.967-3.585q-3.265,0-4.058,3.585Z" transform="translate(-609.267 -524.425)" fill="#091f3d"/>
      <path id="Path_50524" data-name="Path 50524" d="M848.521,542.016v-9.444a4.734,4.734,0,0,0-.8-3.052,3.224,3.224,0,0,0-2.617-.961,4.053,4.053,0,0,0-1.793.473,4.133,4.133,0,0,0-1.488,1.175v11.809h-3.814v-16.34h2.746l.7,1.526a5.691,5.691,0,0,1,4.592-1.831,6.094,6.094,0,0,1,4.6,1.747,6.729,6.729,0,0,1,1.686,4.875v10.024Z" transform="translate(-736.218 -524.424)" fill="#091f3d"/>
      <g id="Group_7452" data-name="Group 7452" transform="translate(17.231 0.898)">
        <path id="Path_50556" data-name="Path 50556" d="M278,627v3.7h2.81a.894.894,0,0,0,.894-.894V627Z" transform="translate(-264.971 -613.971)" fill="#4bb29e"/>
        <path id="Path_50557" data-name="Path 50557" d="M278,534.324h3.7v-8.43a.894.894,0,0,0-.894-.894H278Z" transform="translate(-264.971 -525)" fill="#4bb29e"/>
        <path id="Path_50558" data-name="Path 50558" d="M176.063,534.324l9.261-9.261V525h-8.43a.894.894,0,0,0-.894.894v8.43Z" transform="translate(-176 -525)" fill="#4bb29e"/>
        <path id="Path_50559" data-name="Path 50559" d="M185.324,627H176v2.81a.894.894,0,0,0,.894.894h8.43Z" transform="translate(-176 -613.971)" fill="#4bb29e"/>
        <path id="Path_50560" data-name="Path 50560" d="M221.529,570.529v-4.023l-4.023,4.023Z" transform="translate(-212.204 -561.204)" fill="#4bb29e"/>
      </g>
    </g>
  </g>
</svg>
